<?xml version="1.0" encoding="UTF-8" standalone="no"?>
<svg
   width="48"
   height="33"
   viewBox="0 -1.0 12.7 10"
   version="1.1"
   xmlns="http://www.w3.org/2000/svg">
  <defs
     id="defs1" />
  <path
     id="rect5"
     style="display:inline;fill:#000000;fill-opacity:1;stroke:none;stroke-width:1.4168;stroke-dasharray:none"
     d="M 4.1716082,0 C 4.1592603,0 4.1467499,6.300661e-4 4.1347232,0.00183792 H 3.4265457 c -0.1977096,0 -0.3568551,0.15545556 -0.3568551,0.34855609 0,0.19309983 0.1591457,0.3485561 0.3568551,0.3485561 H 3.8147531 V 1.566882 H 2.7746175 c -0.1634692,0 -0.295074,0.1316037 -0.295074,0.2950739 v 1.3405143 c 1.6778694,9.26e-5 1.7975143,0.027808 3.3490895,0 V 1.8619559 C 5.828633,1.6984867 5.6970293,1.566882 5.533559,1.566882 H 4.5284633 V 0.40388236 c 0.00269,-0.0173442 0.0046,-0.035379 0.0046,-0.0534816 0,-0.14720278 -0.092517,-0.27239875 -0.2240717,-0.32365929 -0.00328,-0.001359 -0.00682,-0.0024268 -0.010135,-0.0036937 -0.010938,-0.00389 -0.021777,-0.0072803 -0.033197,-0.0101353 C 4.2355839,0.00472219 4.20435,1.142006e-5 4.1716084,1.142006e-5 Z M 2.5966508,3.4606599 v 9.222e-4 C 1.1625603,3.4615821 0,4.6241422 0,6.0582329 c 0,1.4340908 1.1625603,2.5966508 2.5966508,2.5966508 0.0043,-2.965e-4 0.0086,-6.04e-4 0.012901,-9.219e-4 H 6.4399893 C 7.2534073,8.6531988 10.465634,7.3726143 11.796504,6.6954083 12.653999,6.2590762 12.697698,6.2072954 12.695557,6.0573107 12.697698,5.9073261 12.653999,5.8555454 11.796504,5.4192133 10.465634,4.7420073 7.2534076,3.4614229 6.4399893,3.4606599 Z M 11.2082,3.515064 c -0.105386,-4.383e-4 -0.151941,0.043228 -0.194564,0.1097307 -0.140735,0.2834671 -0.281781,0.56708 -0.423247,0.8501819 l 1.69022,0.7718027 C 12.418453,4.705155 12.556441,4.1640126 12.69648,3.6229504 12.71343,3.5670834 12.66682,3.5179376 12.60426,3.5150647 Z m 1.072409,3.3527781 -1.69022,0.7718028 c 0.141466,0.2831019 0.282512,0.5667148 0.423247,0.8501819 0.04263,0.066502 0.08918,0.1101696 0.194564,0.1097307 h 1.39607 c 0.06256,-0.00287 0.109169,-0.05202 0.09222,-0.1078857 C 12.556448,7.9506096 12.41846,7.4094672 12.280616,6.8678429 Z" />
</svg>
