<?xml version="1.0" encoding="UTF-8" standalone="no"?>
<!-- Created with Inkscape (http://www.inkscape.org/) -->

<svg
   width="48"
   height="48"
   viewBox="0 0 12.7 12.7"
   version="1.1"
   id="svg1"
   inkscape:version="1.3 (0e150ed6c4, 2023-07-21)"
   sodipodi:docname="submarine.svg"
   xml:space="preserve"
   xmlns:inkscape="http://www.inkscape.org/namespaces/inkscape"
   xmlns:sodipodi="http://sodipodi.sourceforge.net/DTD/sodipodi-0.dtd"
   xmlns="http://www.w3.org/2000/svg"
   xmlns:svg="http://www.w3.org/2000/svg"><sodipodi:namedview
     id="namedview1"
     pagecolor="#ffffff"
     bordercolor="#000000"
     borderopacity="0.25"
     inkscape:showpageshadow="2"
     inkscape:pageopacity="0.0"
     inkscape:pagecheckerboard="0"
     inkscape:deskcolor="#d1d1d1"
     inkscape:document-units="mm"
     inkscape:zoom="32.000001"
     inkscape:cx="7.3749997"
     inkscape:cy="21.687499"
     inkscape:window-width="3840"
     inkscape:window-height="2054"
     inkscape:window-x="-11"
     inkscape:window-y="-11"
     inkscape:window-maximized="1"
     inkscape:current-layer="svg1" /><defs
     id="defs1" /><path
     id="rect5"
     style="fill:#000000;fill-opacity:1;stroke:none;stroke-width:0.793999;stroke-dasharray:none"
     d="m 6.3241317,4.0812637 c -0.00692,0 -0.013931,3.531e-4 -0.020671,0.00103 h -0.396875 c -0.1107999,0 -0.1999878,0.08712 -0.1999878,0.1953369 0,0.1082165 0.089188,0.1953369 0.1999878,0.1953369 H 6.1241439 V 4.9593716 H 5.5412338 c -0.091611,0 -0.1653646,0.073753 -0.1653646,0.1653646 v 0.7512475 c 0.9403072,5.19e-5 1.0073583,0.015584 1.876888,0 V 5.1247362 c 0,-0.091611 -0.073753,-0.1653646 -0.1653646,-0.1653646 H 6.5241195 V 4.3076064 c 0.00151,-0.00972 0.00258,-0.019827 0.00258,-0.029972 0,-0.082495 -0.051848,-0.152657 -0.1255737,-0.1813843 -0.00184,-7.616e-4 -0.00382,-0.00136 -0.00568,-0.00207 -0.00613,-0.00218 -0.012204,-0.00408 -0.018604,-0.00568 -0.016857,-0.00459 -0.034361,-0.00723 -0.05271,-0.00723 z m -0.8826335,1.939414 v 5.168e-4 c -0.8036893,0 -1.4552083,0.6515189 -1.4552083,1.4552083 0,0.8036894 0.651519,1.4552083 1.4552083,1.4552083 0.00241,-1.662e-4 0.00482,-3.385e-4 0.00723,-5.167e-4 H 7.5953719 C 8.0512255,8.9306668 9.8514131,8.213005 10.597256,7.833487 11.077811,7.5889589 11.102301,7.55994 11.101101,7.475886 11.102301,7.391832 11.077811,7.3628132 10.597256,7.1182851 9.8514131,6.7387671 8.0512257,6.0211053 7.5953719,6.0206777 Z m 4.8260618,0.030489 c -0.05906,-2.456e-4 -0.08515,0.024226 -0.109037,0.061495 -0.07887,0.1588599 -0.157915,0.3178015 -0.2371949,0.4764567 l 0.9472289,0.4325317 c 0.07725,-0.3035357 0.154581,-0.6068013 0.233061,-0.910022 0.0095,-0.031309 -0.01662,-0.058851 -0.05168,-0.060461 z m 0.600997,1.8789552 -0.9472289,0.4325317 c 0.07928,0.1586552 0.1583249,0.3175968 0.2371949,0.4764567 0.02389,0.037269 0.04998,0.061741 0.109037,0.061495 h 0.782382 c 0.03506,-0.00161 0.06118,-0.029153 0.05168,-0.060461 -0.07848,-0.3032207 -0.155811,-0.6064863 -0.233061,-0.910022 z"
     sodipodi:nodetypes="ccsssccssccssccscccccccscccscsccccccccccccccccc" /><path
     id="rect5-7"
     style="display:none;fill:#000000;fill-opacity:1;stroke:none;stroke-width:0.793999;stroke-dasharray:none"
     d="m 2.8670085,4.4979167 c -0.00692,0 -0.013931,3.531e-4 -0.020671,0.00103 h -0.396875 c -0.1107999,0 -0.1999878,0.08712 -0.1999878,0.1953369 0,0.1082165 0.089188,0.1953369 0.1999878,0.1953369 H 2.6670207 V 5.7763916 H 1.5549439 c -0.091611,0 -0.1653646,0.073753 -0.1653646,0.1653646 v 0.9513631 c 0.9403072,5.19e-5 2.0656916,0.015584 2.9352213,0 V 5.9417562 c 0,-0.091611 -0.073753,-0.1653646 -0.1653646,-0.1653646 H 3.0669963 V 4.7242594 c 0.00151,-0.00972 0.00258,-0.019827 0.00258,-0.029972 0,-0.082495 -0.051848,-0.152657 -0.1255737,-0.1813843 -0.00184,-7.616e-4 -0.00382,-0.00136 -0.00568,-0.00207 -0.00613,-0.00218 -0.012204,-0.00408 -0.018604,-0.00568 -0.016857,-0.00459 -0.034361,-0.00723 -0.05271,-0.00723 z M 0.396875,7.0378133 v 5.168e-4 A 1.4552083,1.4552083 0 0 0 -1.0583333,8.4935384 1.4552083,1.4552083 0 0 0 0.396875,9.9487467 1.4552083,1.4552083 0 0 0 0.404105,9.94823 H 5.196582 C 5.6524356,9.9478024 7.4526232,9.2301406 8.1984661,8.8506226 8.6790211,8.6060945 8.7035111,8.5770756 8.7023111,8.4930216 8.7035111,8.4089676 8.6790211,8.3799488 8.1984661,8.1354207 7.4526232,7.7559027 5.6524358,7.0382409 5.196582,7.0378133 Z m 7.4718951,0.030489 c -0.05906,-2.456e-4 -0.08515,0.024226 -0.109037,0.061495 -0.07887,0.1588599 -0.157915,0.3178015 -0.2371949,0.4764567 l 0.9472289,0.4325317 c 0.07725,-0.3035357 0.154581,-0.6068013 0.233061,-0.910022 0.0095,-0.031309 -0.01662,-0.058851 -0.05168,-0.060461 z m 0.600997,1.8789552 -0.9472289,0.4325317 c 0.07928,0.1586552 0.1583249,0.3175968 0.2371949,0.4764567 0.02389,0.037269 0.04998,0.061741 0.109037,0.061495 h 0.782382 c 0.03506,-0.00161 0.06118,-0.029153 0.05168,-0.060461 -0.07848,-0.3032207 -0.155811,-0.6064863 -0.233061,-0.910022 z" /></svg>
